<?xml version="1.0" encoding="UTF-8" standalone="no"?>
<svg 
    role="img" 
    xmlns="http://www.w3.org/2000/svg" 
    width="1000mm"
    height="1000mm"
    viewBox="0 0 1000 1000"
    style="max-width:1.6em; height: auto;">
    
    <path 
        id="path" 
        style="opacity:1;vector-effect:none;fill:#000000;fill-opacity:1;"
        d=" M 227 681C 227 681 205 791 205 791C 205 791 316 769 316 769C 316 769 227 681 227 681M 688 221C 688 221 326 578 326 578C 326 578 419 670 419 670C 419 670 781 313 781 313C 781 313 688 221 688 221M 810 100C 810 100 790 119 790 119C 790 119 882 211 882 211C 882 211 902 192 902 192C 902 192 810 100 810 100M 809 23C 827 23 846 30 860 44C 860 44 958 141 958 141C 959 142 960 143 961 144C 986 172 984 214 959 241C 959 242 958 242 958 243C 958 243 908 291 908 291C 898 301 883 304 869 299C 871 303 872 307 872 312C 872 312 872 312 872 312C 872 313 872 313 872 313C 872 326 866 337 856 344C 856 344 446 749 446 749C 435 759 420 763 407 758C 408 762 409 765 409 769C 409 769 409 770 409 770C 409 770 409 771 409 771C 409 783 403 794 393 801C 393 801 373 821 373 821C 361 835 348 839 339 841C 338 841 338 841 337 841C 337 841 214 866 214 866C 214 866 214 866 213 866C 165 874 120 830 130 781C 130 781 155 662 155 662C 157 644 166 633 170 628C 171 626 172 625 174 624C 174 624 199 599 199 599C 209 589 224 585 238 590C 233 577 236 561 247 551C 247 551 661 141 661 141C 672 131 688 128 701 133C 695 119 699 102 710 92C 710 92 759 45 759 45C 772 30 791 23 809 23C 809 23 809 23 809 23M 150 13C 150 13 650 13 650 13C 664 12 676 19 683 31C 690 43 690 57 683 69C 676 81 664 88 650 88C 650 88 150 88 150 88C 138 88 121 95 108 108C 95 121 88 138 88 150C 88 150 88 850 88 850C 88 862 95 879 108 892C 121 905 138 912 150 912C 150 912 850 912 850 912C 862 912 879 905 892 892C 905 879 912 862 912 850C 912 850 912 350 912 350C 912 336 919 324 931 317C 943 310 957 310 969 317C 981 324 988 336 987 350C 987 350 987 850 987 850C 987 887 970 920 945 945C 921 970 888 987 850 987C 850 987 150 987 150 987C 113 987 79 970 55 945C 30 921 13 887 13 850C 13 850 13 150 13 150C 13 113 30 79 55 55C 79 30 113 13 150 13C 150 13 150 13 150 13"
        transform="">
    </path>    
</svg>